<svg xmlns:xlink="http://www.w3.org/1999/xlink" width="130" xmlns="http://www.w3.org/2000/svg" height="73" id="screenshot-eb84c2a9-eef4-801d-8002-e6f0ba0e931b" viewBox="-8 -8 130 73" style="-webkit-print-color-adjust: exact;" fill="none" version="1.1"><g id="shape-eb84c2a9-eef4-801d-8002-e6f0ba0e931b" rx="0" ry="0"><g id="shape-eb84c2a9-eef4-801d-8002-e6f0ba0e931d"><defs><filter id="filter_rumext-id-2" x="-0.07017543859649122" y="-0.14035087719298245" width="1.1403508771929824" height="1.280701754385965" filterUnits="objectBoundingBox" color-interpolation-filters="sRGB"><feFlood flood-opacity="0" result="BackgroundImageFix"/><feBlend mode="normal" in="SourceGraphic" in2="BackgroundImageFix" result="shape"/><feGaussianBlur stdDeviation="4" result="filter_eb84c2a9-eef4-801d-8002-e6f1308e75f4"/></filter><filter id="filter_blur_rumext-id-2" x="-0.07017543859649122" y="-0.14035087719298245" width="1.1403508771929824" height="1.280701754385965" filterUnits="objectBoundingBox" color-interpolation-filters="sRGB"><feFlood flood-opacity="0" result="BackgroundImageFix"/><feBlend mode="normal" in="SourceGraphic" in2="BackgroundImageFix" result="shape"/><feGaussianBlur stdDeviation="4" result="filter_eb84c2a9-eef4-801d-8002-e6f1308e75f4"/></filter></defs><g class="fills" id="fills-eb84c2a9-eef4-801d-8002-e6f0ba0e931d"><path rx="0" ry="0" d="M0.000,57.000C0.000,25.541,25.541,0.000,57.000,0.000C88.459,0.000,114.000,25.541,114.000,57.000" filter="url(#filter_rumext-id-2)" style="fill: rgb(255, 165, 0); fill-opacity: 1;"/></g></g><g id="shape-eb84c2a9-eef4-801d-8002-e6f12cbc6992"><g class="fills" id="fills-eb84c2a9-eef4-801d-8002-e6f12cbc6992"><path rx="0" ry="0" d="M0.000,57.000C0.000,25.541,25.541,0.000,57.000,0.000C88.459,0.000,114.000,25.541,114.000,57.000" style="fill: rgb(255, 206, 0); fill-opacity: 1;"/></g></g><g id="shape-eb84c2a9-eef4-801d-8002-e6f0ba0e931e"><g class="fills" id="fills-eb84c2a9-eef4-801d-8002-e6f0ba0e931e"><path rx="0" ry="0" d="M54.200,16.219C54.200,13.890,56.081,12.000,58.400,12.000L66.800,12.000C69.119,12.000,71.000,13.890,71.000,16.219L71.000,28.875L74.500,28.875L74.500,22.547C74.500,21.378,75.436,20.438,76.600,20.438C77.764,20.438,78.700,21.378,78.700,22.547L78.700,28.875L80.800,28.875C83.119,28.875,85.000,30.765,85.000,33.094L85.000,52.781C85.000,55.110,83.119,57.000,80.800,57.000L66.800,57.000L58.400,57.000C56.081,57.000,54.200,55.110,54.200,52.781L54.200,16.219ZL54.200,16.219ZM59.800,19.031L59.800,21.844C59.800,22.617,60.430,23.250,61.200,23.250L64.000,23.250C64.770,23.250,65.400,22.617,65.400,21.844L65.400,19.031C65.400,18.258,64.770,17.625,64.000,17.625L61.200,17.625C60.430,17.625,59.800,18.258,59.800,19.031ZL59.800,19.031ZM61.200,26.063C60.430,26.063,59.800,26.695,59.800,27.469L59.800,30.281C59.800,31.055,60.430,31.688,61.200,31.688L64.000,31.688C64.770,31.688,65.400,31.055,65.400,30.281L65.400,27.469C65.400,26.695,64.770,26.063,64.000,26.063L61.200,26.063ZL61.200,26.063ZM59.800,35.906L59.800,38.719C59.800,39.492,60.430,40.125,61.200,40.125L64.000,40.125C64.770,40.125,65.400,39.492,65.400,38.719L65.400,35.906C65.400,35.133,64.770,34.500,64.000,34.500L61.200,34.500C60.430,34.500,59.800,35.133,59.800,35.906ZL59.800,35.906ZM75.200,34.500C74.430,34.500,73.800,35.133,73.800,35.906L73.800,38.719C73.800,39.492,74.430,40.125,75.200,40.125L78.000,40.125C78.770,40.125,79.400,39.492,79.400,38.719L79.400,35.906C79.400,35.133,78.770,34.500,78.000,34.500L75.200,34.500ZL75.200,34.500ZM73.800,44.344L73.800,47.156C73.800,47.930,74.430,48.563,75.200,48.563L78.000,48.563C78.770,48.563,79.400,47.930,79.400,47.156L79.400,44.344C79.400,43.570,78.770,42.938,78.000,42.938L75.200,42.938C74.430,42.938,73.800,43.570,73.800,44.344ZL73.800,44.344ZM48.600,26.063C48.600,26.590,48.512,27.029,48.425,27.469C50.175,28.699,51.400,30.809,51.400,33.094C51.400,37.049,48.250,40.125,44.400,40.125L43.000,40.125L43.000,54.188C43.000,55.770,41.687,57.000,40.200,57.000C38.625,57.000,37.400,55.770,37.400,54.188L37.400,40.125L36.000,40.125C32.063,40.125,29.000,37.049,29.000,33.094C29.000,30.809,30.137,28.699,31.887,27.469C31.800,27.029,31.800,26.590,31.800,26.063C31.800,21.404,35.475,17.625,40.200,17.625C44.838,17.625,48.600,21.404,48.600,26.063ZL48.600,26.063Z" style="fill: rgb(0, 0, 0); fill-opacity: 1;"/></g></g></g></svg>